# xmcd CD database file
#
# Track frame offsets:
#	150
#	19890
#	39337
#	60782
#	81842
#	93731
#	115952
#	142805
#	165303
#
# Disc length: 2536 seconds
#
# Revision: 0
# Processed by: cddbd v1.4PL0 Copyright (c) Steve Scherf et al.
# Submitted via: CDex 1.50Beta7
#
DISCID=6409e609
DTITLE=Boney James - Backbone
DYEAR=1993
DGENRE=Jazz
TTITLE0=Backbone
TTITLE1=Bleecker Street
TTITLE2=Just Between Us
TTITLE3=Trinidad
TTITLE4=Blue
TTITLE5=Love You All My Lifetime
TTITLE6=Happy Home
TTITLE7=One Autumn Night
TTITLE8=The Night I Fell in Love
EXTD=YEAR: 1993
EXTT0=
EXTT1=
EXTT2=
EXTT3=
EXTT4=
EXTT5=
EXTT6=
EXTT7=
EXTT8=
PLAYORDER=
